<svg id="visual" viewBox="0 0 900 600" width="900" height="600" xmlns="http://www.w3.org/2000/svg" xmlns:xlink="http://www.w3.org/1999/xlink" version="1.1"><rect x="0" y="0" width="900" height="600" fill="#2d2d2d"></rect><defs><linearGradient id="grad1_0" x1="33.3%" y1="0%" x2="100%" y2="100%"><stop offset="20%" stop-color="#4451b7" stop-opacity="1"></stop><stop offset="80%" stop-color="#4451b7" stop-opacity="1"></stop></linearGradient></defs><defs><linearGradient id="grad1_1" x1="33.3%" y1="0%" x2="100%" y2="100%"><stop offset="20%" stop-color="#4451b7" stop-opacity="1"></stop><stop offset="80%" stop-color="#424586" stop-opacity="1"></stop></linearGradient></defs><defs><linearGradient id="grad1_2" x1="33.3%" y1="0%" x2="100%" y2="100%"><stop offset="20%" stop-color="#3a3958" stop-opacity="1"></stop><stop offset="80%" stop-color="#424586" stop-opacity="1"></stop></linearGradient></defs><defs><linearGradient id="grad1_3" x1="33.3%" y1="0%" x2="100%" y2="100%"><stop offset="20%" stop-color="#3a3958" stop-opacity="1"></stop><stop offset="80%" stop-color="#2d2d2d" stop-opacity="1"></stop></linearGradient></defs><defs><linearGradient id="grad2_0" x1="0%" y1="0%" x2="66.7%" y2="100%"><stop offset="20%" stop-color="#4451b7" stop-opacity="1"></stop><stop offset="80%" stop-color="#4451b7" stop-opacity="1"></stop></linearGradient></defs><defs><linearGradient id="grad2_1" x1="0%" y1="0%" x2="66.7%" y2="100%"><stop offset="20%" stop-color="#424586" stop-opacity="1"></stop><stop offset="80%" stop-color="#4451b7" stop-opacity="1"></stop></linearGradient></defs><defs><linearGradient id="grad2_2" x1="0%" y1="0%" x2="66.7%" y2="100%"><stop offset="20%" stop-color="#424586" stop-opacity="1"></stop><stop offset="80%" stop-color="#3a3958" stop-opacity="1"></stop></linearGradient></defs><defs><linearGradient id="grad2_3" x1="0%" y1="0%" x2="66.7%" y2="100%"><stop offset="20%" stop-color="#2d2d2d" stop-opacity="1"></stop><stop offset="80%" stop-color="#3a3958" stop-opacity="1"></stop></linearGradient></defs><g transform="translate(900, 0)"><path d="M0 432.7C-9.4 361.2 -18.8 289.8 -43.5 302.9C-68.3 316 -108.3 413.6 -121.9 415.1C-135.5 416.7 -122.8 322.2 -134.6 294.7C-146.4 267.2 -182.7 306.7 -196.8 306.2C-210.9 305.7 -202.7 265.2 -220.7 254.7C-238.6 244.1 -282.7 263.6 -287.2 248.8C-291.7 234.1 -256.5 185.3 -255.7 164.4C-255 143.4 -288.5 150.4 -325.6 148.7C-362.8 147.1 -403.4 136.8 -402 118C-400.6 99.3 -357.2 72.2 -355.3 51.1C-353.4 30 -393.1 15 -432.7 0L0 0Z" fill="#343342"></path><path d="M0 324.5C-7.1 270.9 -14.1 217.3 -32.7 227.2C-51.2 237 -81.2 310.2 -91.4 311.4C-101.6 312.5 -92.1 241.7 -100.9 221C-109.8 200.4 -137 230 -147.6 229.7C-158.2 229.3 -152 198.9 -165.5 191C-179 183.1 -212 197.7 -215.4 186.6C-218.7 175.6 -192.4 139 -191.8 123.3C-191.2 107.6 -216.4 112.8 -244.2 111.5C-272.1 110.3 -302.6 102.6 -301.5 88.5C-300.5 74.5 -267.9 54.1 -266.5 38.3C-265.1 22.5 -294.8 11.3 -324.5 0L0 0Z" fill="#3f3f6f"></path><path d="M0 216.3C-4.7 180.6 -9.4 144.9 -21.8 151.4C-34.1 158 -54.1 206.8 -60.9 207.6C-67.8 208.4 -61.4 161.1 -67.3 147.4C-73.2 133.6 -91.4 153.4 -98.4 153.1C-105.4 152.9 -101.4 132.6 -110.3 127.3C-119.3 122.1 -141.4 131.8 -143.6 124.4C-145.8 117.1 -128.3 92.6 -127.9 82.2C-127.5 71.7 -144.3 75.2 -162.8 74.4C-181.4 73.5 -201.7 68.4 -201 59C-200.3 49.7 -178.6 36.1 -177.7 25.5C-176.7 15 -196.5 7.5 -216.3 0L0 0Z" fill="#444b9e"></path><path d="M0 108.2C-2.4 90.3 -4.7 72.4 -10.9 75.7C-17.1 79 -27.1 103.4 -30.5 103.8C-33.9 104.2 -30.7 80.6 -33.6 73.7C-36.6 66.8 -45.7 76.7 -49.2 76.6C-52.7 76.4 -50.7 66.3 -55.2 63.7C-59.7 61 -70.7 65.9 -71.8 62.2C-72.9 58.5 -64.1 46.3 -63.9 41.1C-63.7 35.9 -72.1 37.6 -81.4 37.2C-90.7 36.8 -100.9 34.2 -100.5 29.5C-100.2 24.8 -89.3 18 -88.8 12.8C-88.4 7.5 -98.3 3.8 -108.2 0L0 0Z" fill="#4451b7"></path></g><g transform="translate(0, 600)"><path d="M0 -432.7C10.9 -367.2 21.7 -301.8 44 -305.9C66.2 -309.9 99.9 -383.4 111.3 -379C122.6 -374.6 111.7 -292.3 127.1 -278.3C142.5 -264.4 184.4 -318.8 219.5 -341.5C254.6 -364.3 283.1 -355.3 282.2 -325.7C281.4 -296.1 251.1 -245.8 269 -233.1C287 -220.4 353.1 -245.3 364 -233.9C374.8 -222.5 330.3 -174.9 332 -151.6C333.7 -128.3 381.5 -129.3 399.1 -117.2C416.8 -105.1 404.3 -79.9 404.8 -58.2C405.4 -36.5 419 -18.2 432.7 0L0 0Z" fill="#343342"></path><path d="M0 -324.5C8.1 -275.4 16.3 -226.4 33 -229.4C49.7 -232.4 74.9 -287.5 83.5 -284.2C92 -280.9 83.8 -219.2 95.3 -208.8C106.9 -198.3 138.3 -239.1 164.6 -256.2C191 -273.2 212.3 -266.5 211.7 -244.3C211 -222.1 188.3 -184.4 201.8 -174.8C215.2 -165.3 264.9 -184 273 -175.4C281.1 -166.9 247.8 -131.2 249 -113.7C250.3 -96.2 286.1 -97 299.4 -87.9C312.6 -78.8 303.2 -59.9 303.6 -43.7C304 -27.4 314.3 -13.7 324.5 0L0 0Z" fill="#3f3f6f"></path><path d="M0 -216.3C5.4 -183.6 10.9 -150.9 22 -152.9C33.1 -154.9 50 -191.7 55.6 -189.5C61.3 -187.3 55.8 -146.1 63.6 -139.2C71.3 -132.2 92.2 -159.4 109.8 -170.8C127.3 -182.1 141.6 -177.7 141.1 -162.9C140.7 -148.1 125.6 -122.9 134.5 -116.6C143.5 -110.2 176.6 -122.6 182 -117C187.4 -111.3 165.2 -87.5 166 -75.8C166.8 -64.2 190.8 -64.6 199.6 -58.6C208.4 -52.6 202.1 -40 202.4 -29.1C202.7 -18.2 209.5 -9.1 216.3 0L0 0Z" fill="#444b9e"></path><path d="M0 -108.2C2.7 -91.8 5.4 -75.5 11 -76.5C16.6 -77.5 25 -95.8 27.8 -94.7C30.7 -93.6 27.9 -73.1 31.8 -69.6C35.6 -66.1 46.1 -79.7 54.9 -85.4C63.7 -91.1 70.8 -88.8 70.6 -81.4C70.3 -74 62.8 -61.5 67.3 -58.3C71.7 -55.1 88.3 -61.3 91 -58.5C93.7 -55.6 82.6 -43.7 83 -37.9C83.4 -32.1 95.4 -32.3 99.8 -29.3C104.2 -26.3 101.1 -20 101.2 -14.6C101.3 -9.1 104.8 -4.6 108.2 0L0 0Z" fill="#4451b7"></path></g></svg>