<svg width="243" height="77" viewBox="0 0 243 77" fill="none" xmlns="http://www.w3.org/2000/svg">
<path d="M38.12 0C38.12 0 46.5488 12.9661 55.8769 22.5523C64.4415 31.3538 213.657 35.4393 213.657 35.4393C213.657 35.4393 64.3323 39.4192 55.8769 48.3264C44.1518 60.6781 38.12 77 38.12 77C38.12 77 33.7859 60.6781 22.0608 48.3264C13.6055 39.4192 0 35.4393 0 35.4393C0 35.4393 13.4962 31.3538 22.0608 22.5523C31.389 12.9661 38.12 0 38.12 0Z" fill="#4B91D3"/>
<path d="M31.9256 39.9334V25.6163L45.4326 23.4136V37.7307M31.9256 39.9334C31.9256 41.7581 30.4138 43.2373 28.5489 43.2373C26.6839 43.2373 25.1721 41.7581 25.1721 39.9334C25.1721 38.1086 26.6839 36.6294 28.5489 36.6294C30.4138 36.6294 31.9256 38.1086 31.9256 39.9334ZM45.4326 37.7307C45.4326 39.5554 43.9208 41.0347 42.0558 41.0347C40.1909 41.0347 38.6791 39.5554 38.6791 37.7307C38.6791 35.906 40.1909 34.4268 42.0558 34.4268C43.9208 34.4268 45.4326 35.906 45.4326 37.7307Z" stroke="white" stroke-width="4" stroke-linecap="round" stroke-linejoin="round"/>
<path d="M32.7441 39.2726V24.9555L45.4325 22.7528V37.0699M32.7441 39.2726C32.7441 41.0973 31.3239 42.5765 29.572 42.5765C27.8201 42.5765 26.3999 41.0973 26.3999 39.2726C26.3999 37.4478 27.8201 35.9686 29.572 35.9686C31.3239 35.9686 32.7441 37.4478 32.7441 39.2726ZM45.4325 37.0699C45.4325 38.8946 44.0123 40.3739 42.2604 40.3739C40.5085 40.3739 39.0883 38.8946 39.0883 37.0699C39.0883 35.2452 40.5085 33.766 42.2604 33.766C44.0123 33.766 45.4325 35.2452 45.4325 37.0699Z" stroke="#C7C7CC" stroke-width="4" stroke-linecap="round" stroke-linejoin="round"/>
<path d="M33.1413 38.6118V24.2947L46.239 22.0921V36.4092M33.1413 38.6118C33.1413 40.4365 31.6753 41.9157 29.8669 41.9157C28.0585 41.9157 26.5925 40.4365 26.5925 38.6118C26.5925 36.7871 28.0585 35.3078 29.8669 35.3078C31.6753 35.3078 33.1413 36.7871 33.1413 38.6118ZM46.239 36.4092C46.239 38.2339 44.773 39.7131 42.9646 39.7131C41.1561 39.7131 39.6901 38.2339 39.6901 36.4092C39.6901 34.5844 41.1561 33.1052 42.9646 33.1052C44.773 33.1052 46.239 34.5844 46.239 36.4092Z" stroke="#2446D2" stroke-width="3" stroke-linecap="round" stroke-linejoin="round"/>
<mask id="path-5-outside-1_72_10" maskUnits="userSpaceOnUse" x="57" y="14" width="154" height="35" fill="black">
<rect fill="white" x="57" y="14" width="154" height="35"/>
<path d="M61.278 47C60.074 47 59.472 46.398 59.472 45.194V19.652C59.472 18.448 60.074 17.846 61.278 17.846C62.0663 17.846 62.7257 18.233 63.256 19.007L73.404 34.272L72.63 34.401L82.864 19.007C83.3513 18.233 84.0823 17.846 85.057 17.846C86.0317 17.846 86.519 18.448 86.519 19.652V45.194C86.519 46.398 85.917 47 84.713 47C83.509 47 82.907 46.398 82.907 45.194V23.264L84.025 23.651L74.995 36.938C74.4647 37.712 73.7337 38.099 72.802 38.099C72.157 38.099 71.5693 37.712 71.039 36.938L62.009 23.651L63.084 23.952V45.194C63.084 46.398 62.482 47 61.278 47ZM110.595 25.199C111.799 25.199 112.401 25.801 112.401 27.005V45.194C112.401 46.398 111.799 47 110.595 47C109.391 47 108.789 46.398 108.789 45.194V44.4845C107.27 46.1615 105.034 47 102.081 47H100.877C98.025 47 95.9036 46.312 94.5133 44.936C93.1373 43.5457 92.4493 41.4243 92.4493 38.572V27.005C92.4493 25.801 93.0513 25.199 94.2553 25.199C95.4593 25.199 96.0613 25.801 96.0613 27.005V38.572C96.0613 40.4353 96.3981 41.7038 97.0718 42.3775C97.7598 43.0512 99.0283 43.388 100.877 43.388H102.081C103.801 43.388 105.299 43.1873 106.575 42.786C107.865 42.3847 108.603 41.7683 108.789 40.937V27.005C108.789 25.801 109.391 25.199 110.595 25.199ZM123.887 47C122.067 47 120.626 46.6273 119.566 45.882C118.505 45.1223 117.824 43.99 117.523 42.485C117.423 41.883 117.537 41.41 117.867 41.066C118.211 40.722 118.684 40.55 119.286 40.55C119.874 40.55 120.297 40.7005 120.555 41.0015C120.827 41.2882 121.049 41.7253 121.221 42.313C121.393 42.743 121.68 43.0297 122.081 43.173C122.497 43.3163 123.099 43.388 123.887 43.388H130.939C132.057 43.388 132.81 43.2088 133.197 42.8505C133.584 42.4778 133.777 41.711 133.777 40.55C133.777 39.4033 133.584 38.6437 133.197 38.271C132.81 37.8983 132.057 37.712 130.939 37.712H124.016C121.952 37.712 120.397 37.1888 119.351 36.1425C118.304 35.0962 117.781 33.541 117.781 31.477C117.781 29.37 118.29 27.8005 119.308 26.7685C120.34 25.7222 121.909 25.199 124.016 25.199H130.724C134.092 25.199 136.085 26.618 136.701 29.456C136.816 30.058 136.701 30.5238 136.357 30.8535C136.013 31.1832 135.54 31.348 134.938 31.348C134.379 31.348 133.963 31.2047 133.691 30.918C133.419 30.617 133.204 30.2013 133.046 29.671C132.874 29.327 132.609 29.0977 132.251 28.983C131.907 28.8683 131.398 28.811 130.724 28.811H124.016C122.927 28.811 122.217 28.9758 121.888 29.3055C121.558 29.6352 121.393 30.359 121.393 31.477C121.393 32.509 121.565 33.2042 121.909 33.5625C122.267 33.9208 122.97 34.1 124.016 34.1H130.939C133.089 34.1 134.702 34.6375 135.777 35.7125C136.852 36.7875 137.389 38.4 137.389 40.55C137.389 42.7143 136.852 44.334 135.777 45.409C134.702 46.4697 133.089 47 130.939 47H123.887ZM145.057 37.583V38.615C145.057 40.464 145.394 41.7253 146.068 42.399C146.741 43.0583 148.01 43.388 149.873 43.388H153.399C154.861 43.388 155.943 43.2518 156.646 42.9795C157.348 42.7072 157.814 42.227 158.043 41.539C158.201 40.9943 158.416 40.5787 158.688 40.292C158.975 40.0053 159.405 39.862 159.978 39.862C160.58 39.862 161.039 40.0197 161.354 40.335C161.669 40.6503 161.77 41.109 161.655 41.711C161.34 43.4883 160.494 44.8142 159.118 45.6885C157.742 46.5628 155.836 47 153.399 47H149.873C147.021 47 144.899 46.312 143.509 44.936C142.133 43.56 141.445 41.453 141.445 38.615V33.627C141.445 30.7173 142.133 28.5817 143.509 27.22C144.899 25.844 147.021 25.1703 149.873 25.199H153.399C156.266 25.199 158.387 25.887 159.763 27.263C161.139 28.6247 161.827 30.746 161.827 33.627V35.777C161.827 36.981 161.225 37.583 160.021 37.583H145.057ZM149.873 28.811C148.01 28.7823 146.741 29.1048 146.068 29.7785C145.394 30.4522 145.057 31.735 145.057 33.627V33.971H158.215V33.627C158.215 31.7493 157.878 30.4808 157.205 29.8215C156.545 29.1478 155.277 28.811 153.399 28.811H149.873ZM169.73 37.583V38.615C169.73 40.464 170.067 41.7253 170.741 42.399C171.414 43.0583 172.683 43.388 174.546 43.388H178.072C179.534 43.388 180.616 43.2518 181.319 42.9795C182.021 42.7072 182.487 42.227 182.716 41.539C182.874 40.9943 183.089 40.5787 183.361 40.292C183.648 40.0053 184.078 39.862 184.651 39.862C185.253 39.862 185.712 40.0197 186.027 40.335C186.342 40.6503 186.443 41.109 186.328 41.711C186.013 43.4883 185.167 44.8142 183.791 45.6885C182.415 46.5628 180.509 47 178.072 47H174.546C171.694 47 169.572 46.312 168.182 44.936C166.806 43.56 166.118 41.453 166.118 38.615V33.627C166.118 30.7173 166.806 28.5817 168.182 27.22C169.572 25.844 171.694 25.1703 174.546 25.199H178.072C180.939 25.199 183.06 25.887 184.436 27.263C185.812 28.6247 186.5 30.746 186.5 33.627V35.777C186.5 36.981 185.898 37.583 184.694 37.583H169.73ZM174.546 28.811C172.683 28.7823 171.414 29.1048 170.741 29.7785C170.067 30.4522 169.73 31.735 169.73 33.627V33.971H182.888V33.627C182.888 31.7493 182.551 30.4808 181.878 29.8215C181.218 29.1478 179.95 28.811 178.072 28.811H174.546ZM193.629 47C192.425 47 191.823 46.398 191.823 45.194V18.534C191.823 17.33 192.425 16.728 193.629 16.728C194.833 16.728 195.435 17.33 195.435 18.534V34.6805L205.669 25.887C206.586 25.0987 207.432 25.156 208.206 26.059C208.994 26.9763 208.937 27.822 208.034 28.596L200.186 35.3685L207.69 43.904C208.493 44.8357 208.45 45.6813 207.561 46.441C206.644 47.2293 205.784 47.172 204.981 46.269L197.434 37.755L195.435 39.475V45.194C195.435 46.398 194.833 47 193.629 47Z"/>
</mask>
<path d="M61.278 47C60.074 47 59.472 46.398 59.472 45.194V19.652C59.472 18.448 60.074 17.846 61.278 17.846C62.0663 17.846 62.7257 18.233 63.256 19.007L73.404 34.272L72.63 34.401L82.864 19.007C83.3513 18.233 84.0823 17.846 85.057 17.846C86.0317 17.846 86.519 18.448 86.519 19.652V45.194C86.519 46.398 85.917 47 84.713 47C83.509 47 82.907 46.398 82.907 45.194V23.264L84.025 23.651L74.995 36.938C74.4647 37.712 73.7337 38.099 72.802 38.099C72.157 38.099 71.5693 37.712 71.039 36.938L62.009 23.651L63.084 23.952V45.194C63.084 46.398 62.482 47 61.278 47ZM110.595 25.199C111.799 25.199 112.401 25.801 112.401 27.005V45.194C112.401 46.398 111.799 47 110.595 47C109.391 47 108.789 46.398 108.789 45.194V44.4845C107.27 46.1615 105.034 47 102.081 47H100.877C98.025 47 95.9036 46.312 94.5133 44.936C93.1373 43.5457 92.4493 41.4243 92.4493 38.572V27.005C92.4493 25.801 93.0513 25.199 94.2553 25.199C95.4593 25.199 96.0613 25.801 96.0613 27.005V38.572C96.0613 40.4353 96.3981 41.7038 97.0718 42.3775C97.7598 43.0512 99.0283 43.388 100.877 43.388H102.081C103.801 43.388 105.299 43.1873 106.575 42.786C107.865 42.3847 108.603 41.7683 108.789 40.937V27.005C108.789 25.801 109.391 25.199 110.595 25.199ZM123.887 47C122.067 47 120.626 46.6273 119.566 45.882C118.505 45.1223 117.824 43.99 117.523 42.485C117.423 41.883 117.537 41.41 117.867 41.066C118.211 40.722 118.684 40.55 119.286 40.55C119.874 40.55 120.297 40.7005 120.555 41.0015C120.827 41.2882 121.049 41.7253 121.221 42.313C121.393 42.743 121.68 43.0297 122.081 43.173C122.497 43.3163 123.099 43.388 123.887 43.388H130.939C132.057 43.388 132.81 43.2088 133.197 42.8505C133.584 42.4778 133.777 41.711 133.777 40.55C133.777 39.4033 133.584 38.6437 133.197 38.271C132.81 37.8983 132.057 37.712 130.939 37.712H124.016C121.952 37.712 120.397 37.1888 119.351 36.1425C118.304 35.0962 117.781 33.541 117.781 31.477C117.781 29.37 118.29 27.8005 119.308 26.7685C120.34 25.7222 121.909 25.199 124.016 25.199H130.724C134.092 25.199 136.085 26.618 136.701 29.456C136.816 30.058 136.701 30.5238 136.357 30.8535C136.013 31.1832 135.54 31.348 134.938 31.348C134.379 31.348 133.963 31.2047 133.691 30.918C133.419 30.617 133.204 30.2013 133.046 29.671C132.874 29.327 132.609 29.0977 132.251 28.983C131.907 28.8683 131.398 28.811 130.724 28.811H124.016C122.927 28.811 122.217 28.9758 121.888 29.3055C121.558 29.6352 121.393 30.359 121.393 31.477C121.393 32.509 121.565 33.2042 121.909 33.5625C122.267 33.9208 122.97 34.1 124.016 34.1H130.939C133.089 34.1 134.702 34.6375 135.777 35.7125C136.852 36.7875 137.389 38.4 137.389 40.55C137.389 42.7143 136.852 44.334 135.777 45.409C134.702 46.4697 133.089 47 130.939 47H123.887ZM145.057 37.583V38.615C145.057 40.464 145.394 41.7253 146.068 42.399C146.741 43.0583 148.01 43.388 149.873 43.388H153.399C154.861 43.388 155.943 43.2518 156.646 42.9795C157.348 42.7072 157.814 42.227 158.043 41.539C158.201 40.9943 158.416 40.5787 158.688 40.292C158.975 40.0053 159.405 39.862 159.978 39.862C160.58 39.862 161.039 40.0197 161.354 40.335C161.669 40.6503 161.77 41.109 161.655 41.711C161.34 43.4883 160.494 44.8142 159.118 45.6885C157.742 46.5628 155.836 47 153.399 47H149.873C147.021 47 144.899 46.312 143.509 44.936C142.133 43.56 141.445 41.453 141.445 38.615V33.627C141.445 30.7173 142.133 28.5817 143.509 27.22C144.899 25.844 147.021 25.1703 149.873 25.199H153.399C156.266 25.199 158.387 25.887 159.763 27.263C161.139 28.6247 161.827 30.746 161.827 33.627V35.777C161.827 36.981 161.225 37.583 160.021 37.583H145.057ZM149.873 28.811C148.01 28.7823 146.741 29.1048 146.068 29.7785C145.394 30.4522 145.057 31.735 145.057 33.627V33.971H158.215V33.627C158.215 31.7493 157.878 30.4808 157.205 29.8215C156.545 29.1478 155.277 28.811 153.399 28.811H149.873ZM169.73 37.583V38.615C169.73 40.464 170.067 41.7253 170.741 42.399C171.414 43.0583 172.683 43.388 174.546 43.388H178.072C179.534 43.388 180.616 43.2518 181.319 42.9795C182.021 42.7072 182.487 42.227 182.716 41.539C182.874 40.9943 183.089 40.5787 183.361 40.292C183.648 40.0053 184.078 39.862 184.651 39.862C185.253 39.862 185.712 40.0197 186.027 40.335C186.342 40.6503 186.443 41.109 186.328 41.711C186.013 43.4883 185.167 44.8142 183.791 45.6885C182.415 46.5628 180.509 47 178.072 47H174.546C171.694 47 169.572 46.312 168.182 44.936C166.806 43.56 166.118 41.453 166.118 38.615V33.627C166.118 30.7173 166.806 28.5817 168.182 27.22C169.572 25.844 171.694 25.1703 174.546 25.199H178.072C180.939 25.199 183.06 25.887 184.436 27.263C185.812 28.6247 186.5 30.746 186.5 33.627V35.777C186.5 36.981 185.898 37.583 184.694 37.583H169.73ZM174.546 28.811C172.683 28.7823 171.414 29.1048 170.741 29.7785C170.067 30.4522 169.73 31.735 169.73 33.627V33.971H182.888V33.627C182.888 31.7493 182.551 30.4808 181.878 29.8215C181.218 29.1478 179.95 28.811 178.072 28.811H174.546ZM193.629 47C192.425 47 191.823 46.398 191.823 45.194V18.534C191.823 17.33 192.425 16.728 193.629 16.728C194.833 16.728 195.435 17.33 195.435 18.534V34.6805L205.669 25.887C206.586 25.0987 207.432 25.156 208.206 26.059C208.994 26.9763 208.937 27.822 208.034 28.596L200.186 35.3685L207.69 43.904C208.493 44.8357 208.45 45.6813 207.561 46.441C206.644 47.2293 205.784 47.172 204.981 46.269L197.434 37.755L195.435 39.475V45.194C195.435 46.398 194.833 47 193.629 47Z" fill="#2C31C8"/>
<path d="M63.256 19.007L64.9215 17.8998L64.9138 17.8881L64.9059 17.8765L63.256 19.007ZM73.404 34.272L73.7328 36.2448L76.7795 35.737L75.0695 33.1648L73.404 34.272ZM72.63 34.401L70.9645 33.2937L68.4132 37.1314L72.9588 36.3738L72.63 34.401ZM82.864 19.007L84.5295 20.1143L84.5433 20.0936L84.5565 20.0726L82.864 19.007ZM82.907 23.264L83.5612 21.374L80.907 20.4553V23.264H82.907ZM84.025 23.651L85.6792 24.7752L87.147 22.6153L84.6792 21.761L84.025 23.651ZM74.995 36.938L76.6449 38.0685L76.6492 38.0622L74.995 36.938ZM71.039 36.938L69.3848 38.0622L69.3891 38.0685L71.039 36.938ZM62.009 23.651L62.5483 21.7251L57.2793 20.2498L60.3548 24.7752L62.009 23.651ZM63.084 23.952H65.084V22.4351L63.6233 22.0261L63.084 23.952ZM61.278 47V45C61.1377 45 61.0964 44.9818 61.1203 44.9898C61.154 45.001 61.2439 45.0405 61.3377 45.1343C61.4315 45.2281 61.471 45.318 61.4822 45.3517C61.4902 45.3756 61.472 45.3343 61.472 45.194H59.472H57.472C57.472 46.1043 57.7009 47.1544 58.5093 47.9627C59.3176 48.7711 60.3677 49 61.278 49V47ZM59.472 45.194H61.472V19.652H59.472H57.472V45.194H59.472ZM59.472 19.652H61.472C61.472 19.5117 61.4902 19.4704 61.4822 19.4943C61.471 19.528 61.4315 19.6179 61.3377 19.7117C61.2439 19.8055 61.154 19.845 61.1203 19.8562C61.0964 19.8642 61.1377 19.846 61.278 19.846V17.846V15.846C60.3677 15.846 59.3176 16.0749 58.5093 16.8833C57.7009 17.6916 57.472 18.7417 57.472 19.652H59.472ZM61.278 17.846V19.846C61.3098 19.846 61.3246 19.8497 61.3285 19.8507C61.3321 19.8517 61.3385 19.8536 61.3513 19.8611C61.3765 19.8758 61.4702 19.9391 61.6061 20.1375L63.256 19.007L64.9059 17.8765C64.0839 16.6769 62.8579 15.846 61.278 15.846V17.846ZM63.256 19.007L61.5905 20.1142L71.7385 35.3792L73.404 34.272L75.0695 33.1648L64.9215 17.8998L63.256 19.007ZM73.404 34.272L73.0752 32.2992L72.3012 32.4282L72.63 34.401L72.9588 36.3738L73.7328 36.2448L73.404 34.272ZM72.63 34.401L74.2955 35.5083L84.5295 20.1143L82.864 19.007L81.1985 17.8997L70.9645 33.2937L72.63 34.401ZM82.864 19.007L84.5565 20.0726C84.6339 19.9497 84.6892 19.9167 84.7135 19.9038C84.7434 19.888 84.8377 19.846 85.057 19.846V17.846V15.846C83.4494 15.846 82.053 16.5413 81.1715 17.9414L82.864 19.007ZM85.057 17.846V19.846C85.0984 19.846 85.0431 19.8527 84.9351 19.8082C84.8149 19.7587 84.6924 19.6712 84.599 19.5559C84.5128 19.4494 84.4937 19.3717 84.4967 19.3829C84.5008 19.3983 84.519 19.4794 84.519 19.652H86.519H88.519C88.519 18.8321 88.3615 17.8464 87.708 17.0391C86.9891 16.151 85.9776 15.846 85.057 15.846V17.846ZM86.519 19.652H84.519V45.194H86.519H88.519V19.652H86.519ZM86.519 45.194H84.519C84.519 45.3343 84.5008 45.3756 84.5088 45.3517C84.52 45.318 84.5595 45.2281 84.6533 45.1343C84.7471 45.0405 84.837 45.001 84.8707 44.9898C84.8946 44.9818 84.8533 45 84.713 45V47V49C85.6233 49 86.6734 48.7711 87.4817 47.9627C88.2901 47.1544 88.519 46.1043 88.519 45.194H86.519ZM84.713 47V45C84.5727 45 84.5314 44.9818 84.5553 44.9898C84.589 45.001 84.6789 45.0405 84.7727 45.1343C84.8665 45.2281 84.906 45.318 84.9172 45.3517C84.9252 45.3756 84.907 45.3343 84.907 45.194H82.907H80.907C80.907 46.1043 81.1359 47.1544 81.9443 47.9627C82.7526 48.7711 83.8027 49 84.713 49V47ZM82.907 45.194H84.907V23.264H82.907H80.907V45.194H82.907ZM82.907 23.264L82.2528 25.154L83.3708 25.541L84.025 23.651L84.6792 21.761L83.5612 21.374L82.907 23.264ZM84.025 23.651L82.3708 22.5268L73.3408 35.8138L74.995 36.938L76.6492 38.0622L85.6792 24.7752L84.025 23.651ZM74.995 36.938L73.3451 35.8075C73.1845 36.042 73.0684 36.099 72.802 36.099V38.099V40.099C74.399 40.099 75.7448 39.382 76.6449 38.0685L74.995 36.938ZM72.802 38.099V36.099C72.8443 36.099 72.8886 36.1059 72.9281 36.1183C72.9662 36.1302 72.983 36.1421 72.9775 36.1384C72.9593 36.1264 72.8536 36.048 72.6889 35.8075L71.039 36.938L69.3891 38.0685C70.1115 39.1228 71.2315 40.099 72.802 40.099V38.099ZM71.039 36.938L72.6932 35.8138L63.6632 22.5268L62.009 23.651L60.3548 24.7752L69.3848 38.0622L71.039 36.938ZM62.009 23.651L61.4697 25.5769L62.5447 25.8779L63.084 23.952L63.6233 22.0261L62.5483 21.7251L62.009 23.651ZM63.084 23.952H61.084V45.194H63.084H65.084V23.952H63.084ZM63.084 45.194H61.084C61.084 45.3343 61.0658 45.3756 61.0738 45.3517C61.085 45.318 61.1245 45.2281 61.2183 45.1343C61.3121 45.0405 61.402 45.001 61.4357 44.9898C61.4596 44.9818 61.4183 45 61.278 45V47V49C62.1883 49 63.2384 48.7711 64.0467 47.9627C64.8551 47.1544 65.084 46.1043 65.084 45.194H63.084ZM108.789 44.4845H110.789V39.2982L107.307 43.1417L108.789 44.4845ZM94.5133 44.936L93.0918 46.3429L93.0991 46.3502L93.1064 46.3575L94.5133 44.936ZM97.0718 42.3775L95.6576 43.7917L95.665 43.7992L95.6726 43.8065L97.0718 42.3775ZM106.575 42.786L105.981 40.8763L105.975 40.8782L106.575 42.786ZM108.789 40.937L110.741 41.3744L110.789 41.1584V40.937H108.789ZM110.595 25.199V27.199C110.736 27.199 110.777 27.2172 110.753 27.2092C110.719 27.198 110.629 27.1585 110.536 27.0647C110.442 26.9709 110.402 26.881 110.391 26.8473C110.383 26.8234 110.401 26.8647 110.401 27.005H112.401H114.401C114.401 26.0947 114.172 25.0446 113.364 24.2363C112.556 23.4279 111.506 23.199 110.595 23.199V25.199ZM112.401 27.005H110.401V45.194H112.401H114.401V27.005H112.401ZM112.401 45.194H110.401C110.401 45.3343 110.383 45.3756 110.391 45.3517C110.402 45.318 110.442 45.2281 110.536 45.1343C110.629 45.0405 110.719 45.001 110.753 44.9898C110.777 44.9818 110.736 45 110.595 45V47V49C111.506 49 112.556 48.7711 113.364 47.9627C114.172 47.1544 114.401 46.1043 114.401 45.194H112.401ZM110.595 47V45C110.455 45 110.414 44.9818 110.438 44.9898C110.471 45.001 110.561 45.0405 110.655 45.1343C110.749 45.2281 110.788 45.318 110.8 45.3517C110.808 45.3756 110.789 45.3343 110.789 45.194H108.789H106.789C106.789 46.1043 107.018 47.1544 107.827 47.9627C108.635 48.7711 109.685 49 110.595 49V47ZM108.789 45.194H110.789V44.4845H108.789H106.789V45.194H108.789ZM108.789 44.4845L107.307 43.1417C106.274 44.282 104.651 45 102.081 45V47V49C105.417 49 108.266 48.041 110.271 45.8273L108.789 44.4845ZM102.081 47V45H100.877V47V49H102.081V47ZM100.877 47V45C98.311 45 96.794 44.3793 95.9202 43.5145L94.5133 44.936L93.1064 46.3575C95.0133 48.2447 97.739 49 100.877 49V47ZM94.5133 44.936L95.9348 43.5291C95.07 42.6553 94.4493 41.1383 94.4493 38.572H92.4493H90.4493C90.4493 41.7104 91.2046 44.4361 93.0918 46.3429L94.5133 44.936ZM92.4493 38.572H94.4493V27.005H92.4493H90.4493V38.572H92.4493ZM92.4493 27.005H94.4493C94.4493 26.8647 94.4675 26.8234 94.4595 26.8473C94.4483 26.881 94.4088 26.9709 94.315 27.0647C94.2212 27.1585 94.1313 27.198 94.0976 27.2092C94.0737 27.2172 94.115 27.199 94.2553 27.199V25.199V23.199C93.345 23.199 92.2949 23.4279 91.4866 24.2363C90.6782 25.0446 90.4493 26.0947 90.4493 27.005H92.4493ZM94.2553 25.199V27.199C94.3956 27.199 94.4369 27.2172 94.413 27.2092C94.3793 27.198 94.2894 27.1585 94.1956 27.0647C94.1018 26.9709 94.0623 26.881 94.0511 26.8473C94.0431 26.8234 94.0613 26.8647 94.0613 27.005H96.0613H98.0613C98.0613 26.0947 97.8324 25.0446 97.024 24.2363C96.2157 23.4279 95.1656 23.199 94.2553 23.199V25.199ZM96.0613 27.005H94.0613V38.572H96.0613H98.0613V27.005H96.0613ZM96.0613 38.572H94.0613C94.0613 40.5209 94.3815 42.5156 95.6576 43.7917L97.0718 42.3775L98.486 40.9633C98.4148 40.892 98.0613 40.3498 98.0613 38.572H96.0613ZM97.0718 42.3775L95.6726 43.8065C96.9556 45.0629 98.9301 45.388 100.877 45.388V43.388V41.388C99.1265 41.388 98.564 41.0395 98.4711 40.9485L97.0718 42.3775ZM100.877 43.388V45.388H102.081V43.388V41.388H100.877V43.388ZM102.081 43.388V45.388C103.95 45.388 105.659 45.1708 107.175 44.6938L106.575 42.786L105.975 40.8782C104.94 41.2038 103.653 41.388 102.081 41.388V43.388ZM106.575 42.786L107.169 44.6957C108.717 44.2141 110.32 43.2505 110.741 41.3744L108.789 40.937L106.838 40.4996C106.853 40.4309 106.891 40.4234 106.814 40.4875C106.712 40.5732 106.469 40.7245 105.981 40.8763L106.575 42.786ZM108.789 40.937H110.789V27.005H108.789H106.789V40.937H108.789ZM108.789 27.005H110.789C110.789 26.8647 110.808 26.8234 110.8 26.8473C110.788 26.881 110.749 26.9709 110.655 27.0647C110.561 27.1585 110.471 27.198 110.438 27.2092C110.414 27.2172 110.455 27.199 110.595 27.199V25.199V23.199C109.685 23.199 108.635 23.4279 107.827 24.2363C107.018 25.0446 106.789 26.0947 106.789 27.005H108.789ZM119.566 45.882L118.401 47.508L118.408 47.5132L118.416 47.5184L119.566 45.882ZM117.523 42.485L115.55 42.8138L115.556 42.8456L115.562 42.8772L117.523 42.485ZM117.867 41.066L116.453 39.6518L116.438 39.6668L116.423 39.6822L117.867 41.066ZM120.555 41.0015L119.036 42.3031L119.069 42.3419L119.105 42.379L120.555 41.0015ZM121.221 42.313L119.302 42.8748L119.328 42.9668L119.364 43.0558L121.221 42.313ZM122.081 43.173L121.408 45.0565L121.419 45.0602L121.429 45.0637L122.081 43.173ZM133.197 42.8505L134.555 44.318L134.57 44.3047L134.584 44.2911L133.197 42.8505ZM133.197 38.271L134.584 36.8304L134.584 36.8304L133.197 38.271ZM119.351 36.1425L117.936 37.5567L117.936 37.5567L119.351 36.1425ZM119.308 26.7685L117.884 25.3641L117.883 25.3642L119.308 26.7685ZM136.701 29.456L138.666 29.0818L138.661 29.0566L138.655 29.0315L136.701 29.456ZM136.357 30.8535L134.973 29.4095L134.973 29.4095L136.357 30.8535ZM133.691 30.918L132.208 32.2598L132.224 32.2779L132.241 32.2955L133.691 30.918ZM133.046 29.671L134.963 29.1011L134.913 28.9332L134.835 28.7766L133.046 29.671ZM132.251 28.983L131.618 30.8804L131.629 30.8842L131.641 30.8878L132.251 28.983ZM121.909 33.5625L120.466 34.9476L120.48 34.9623L120.495 34.9767L121.909 33.5625ZM135.777 35.7125L137.191 34.2983L137.191 34.2983L135.777 35.7125ZM135.777 45.409L137.181 46.8327L137.191 46.8232L135.777 45.409ZM123.887 47V45C122.317 45 121.328 44.6761 120.715 44.2456L119.566 45.882L118.416 47.5184C119.924 48.5785 121.816 49 123.887 49V47ZM119.566 45.882L120.73 44.256C120.153 43.8429 119.704 43.1939 119.484 42.0928L117.523 42.485L115.562 42.8772C115.944 44.7861 116.856 46.4017 118.401 47.508L119.566 45.882ZM117.523 42.485L119.496 42.1562C119.479 42.0559 119.498 42.067 119.477 42.1499C119.467 42.1927 119.448 42.2462 119.417 42.3037C119.386 42.3614 119.348 42.4108 119.311 42.4498L117.867 41.066L116.423 39.6822C115.537 40.6062 115.378 41.7819 115.55 42.8138L117.523 42.485ZM117.867 41.066L119.281 42.4802C119.263 42.4983 119.241 42.516 119.217 42.5312C119.193 42.5463 119.174 42.5547 119.163 42.5586C119.142 42.5662 119.174 42.55 119.286 42.55V40.55V38.55C118.287 38.55 117.257 38.8478 116.453 39.6518L117.867 41.066ZM119.286 40.55V42.55C119.418 42.55 119.432 42.568 119.373 42.5471C119.3 42.5211 119.163 42.4509 119.036 42.3031L120.555 41.0015L122.073 39.6999C121.282 38.7765 120.171 38.55 119.286 38.55V40.55ZM120.555 41.0015L119.105 42.379C119.08 42.3532 119.099 42.3647 119.142 42.4505C119.186 42.5356 119.242 42.6718 119.302 42.8748L121.221 42.313L123.14 41.7512C122.924 41.0099 122.584 40.2337 122.005 39.624L120.555 41.0015ZM121.221 42.313L119.364 43.0558C119.728 43.9663 120.416 44.7022 121.408 45.0565L122.081 43.173L122.754 41.2895C122.817 41.3122 122.902 41.3595 122.979 41.4363C123.014 41.4715 123.039 41.5046 123.056 41.5305C123.072 41.5559 123.078 41.571 123.078 41.5702L121.221 42.313ZM122.081 43.173L121.429 45.0637C122.159 45.3154 123.024 45.388 123.887 45.388V43.388V41.388C123.174 41.388 122.835 41.3173 122.733 41.2823L122.081 43.173ZM123.887 43.388V45.388H130.939V43.388V41.388H123.887V43.388ZM130.939 43.388V45.388C131.591 45.388 132.226 45.337 132.805 45.1992C133.371 45.0646 134.019 44.815 134.555 44.318L133.197 42.8505L131.838 41.383C131.987 41.2443 132.066 41.2635 131.879 41.308C131.705 41.3494 131.405 41.388 130.939 41.388V43.388ZM133.197 42.8505L134.584 44.2911C135.145 43.7506 135.423 43.0704 135.571 42.4852C135.722 41.8863 135.777 41.2262 135.777 40.55H133.777H131.777C131.777 41.0348 131.735 41.3386 131.693 41.5065C131.647 41.6881 131.635 41.5777 131.809 41.4099L133.197 42.8505ZM133.777 40.55H135.777C135.777 39.8794 135.722 39.2233 135.57 38.6266C135.421 38.0419 135.142 37.3675 134.584 36.8304L133.197 38.271L131.809 39.7116C131.638 39.5472 131.649 39.4389 131.694 39.6139C131.735 39.7768 131.777 40.0739 131.777 40.55H133.777ZM133.197 38.271L134.584 36.8304C134.05 36.3159 133.398 36.0528 132.823 35.9104C132.237 35.7653 131.595 35.712 130.939 35.712V37.712V39.712C131.401 39.712 131.695 39.7519 131.861 39.7931C132.038 39.837 131.956 39.8535 131.809 39.7116L133.197 38.271ZM130.939 37.712V35.712H124.016V37.712V39.712H130.939V37.712ZM124.016 37.712V35.712C122.27 35.712 121.308 35.2719 120.765 34.7283L119.351 36.1425L117.936 37.5567C119.485 39.1057 121.634 39.712 124.016 39.712V37.712ZM119.351 36.1425L120.765 34.7283C120.221 34.1846 119.781 33.2234 119.781 31.477H117.781H115.781C115.781 33.8586 116.387 36.0077 117.936 37.5567L119.351 36.1425ZM117.781 31.477H119.781C119.781 29.6575 120.222 28.6897 120.732 28.1728L119.308 26.7685L117.883 25.3642C116.358 26.9113 115.781 29.0825 115.781 31.477H117.781ZM119.308 26.7685L120.731 28.1729C121.25 27.647 122.21 27.199 124.016 27.199V25.199V23.199C121.608 23.199 119.429 23.7973 117.884 25.3641L119.308 26.7685ZM124.016 25.199V27.199H130.724V25.199V23.199H124.016V25.199ZM130.724 25.199V27.199C132.145 27.199 133.033 27.4998 133.584 27.8923C134.101 28.2605 134.523 28.8514 134.747 29.8804L136.701 29.456L138.655 29.0315C138.263 27.2226 137.38 25.685 135.905 24.6342C134.463 23.6077 132.671 23.199 130.724 23.199V25.199ZM136.701 29.456L134.736 29.8302C134.754 29.9244 134.731 29.8912 134.759 29.7788C134.773 29.7209 134.799 29.6524 134.839 29.5817C134.88 29.5109 134.928 29.4532 134.973 29.4095L136.357 30.8535L137.741 32.2975C138.713 31.3657 138.866 30.1343 138.666 29.0818L136.701 29.456ZM136.357 30.8535L134.973 29.4095C134.993 29.3902 135.016 29.3728 135.039 29.3588C135.062 29.345 135.079 29.3382 135.086 29.3358C135.099 29.3313 135.059 29.348 134.938 29.348V31.348V33.348C135.914 33.348 136.933 33.0715 137.741 32.2975L136.357 30.8535ZM134.938 31.348V29.348C134.823 29.348 134.809 29.3325 134.859 29.3498C134.886 29.3591 134.93 29.3774 134.982 29.4101C135.035 29.4434 135.09 29.4868 135.141 29.5405L133.691 30.918L132.241 32.2955C133.025 33.1208 134.062 33.348 134.938 33.348V31.348ZM133.691 30.918L135.174 29.5762C135.161 29.5621 135.065 29.4433 134.963 29.1011L133.046 29.671L131.129 30.2409C131.343 30.9594 131.676 31.6719 132.208 32.2598L133.691 30.918ZM133.046 29.671L134.835 28.7766C134.428 27.9627 133.744 27.3611 132.86 27.0782L132.251 28.983L131.641 30.8878C131.582 30.869 131.496 30.8282 131.41 30.7537C131.324 30.6799 131.278 30.6062 131.257 30.5654L133.046 29.671ZM132.251 28.983L132.883 27.0856C132.229 26.8677 131.461 26.811 130.724 26.811V28.811V30.811C131.008 30.811 131.226 30.8233 131.387 30.8414C131.554 30.8603 131.621 30.8812 131.618 30.8804L132.251 28.983ZM130.724 28.811V26.811H124.016V28.811V30.811H130.724V28.811ZM124.016 28.811V26.811C123.386 26.811 122.771 26.8572 122.214 26.9865C121.683 27.1099 121.012 27.3527 120.473 27.8913L121.888 29.3055L123.302 30.7197C123.19 30.8313 123.095 30.881 123.065 30.8951C123.036 30.909 123.047 30.8995 123.119 30.8827C123.272 30.8473 123.557 30.811 124.016 30.811V28.811ZM121.888 29.3055L120.473 27.8913C119.928 28.4369 119.688 29.1204 119.567 29.6515C119.439 30.2125 119.393 30.8356 119.393 31.477H121.393H123.393C123.393 31.0004 123.43 30.7025 123.467 30.5397C123.484 30.4623 123.495 30.4485 123.482 30.4765C123.468 30.5045 123.418 30.6034 123.302 30.7197L121.888 29.3055ZM121.393 31.477H119.393C119.393 32.0904 119.443 32.6958 119.581 33.2527C119.716 33.7992 119.968 34.4282 120.466 34.9476L121.909 33.5625L123.352 32.1774C123.506 32.3385 123.5 32.4407 123.463 32.292C123.429 32.1538 123.393 31.8956 123.393 31.477H121.393ZM121.909 33.5625L120.495 34.9767C121.014 35.4964 121.652 35.7613 122.21 35.9036C122.777 36.0481 123.393 36.1 124.016 36.1V34.1V32.1C123.593 32.1 123.335 32.0623 123.199 32.0277C123.054 31.9908 123.162 31.9869 123.323 32.1483L121.909 33.5625ZM124.016 34.1V36.1H130.939V34.1V32.1H124.016V34.1ZM130.939 34.1V36.1C132.781 36.1 133.795 36.5591 134.362 37.1267L135.777 35.7125L137.191 34.2983C135.608 32.7159 133.397 32.1 130.939 32.1V34.1ZM135.777 35.7125L134.362 37.1267C134.93 37.6944 135.389 38.7083 135.389 40.55H137.389H139.389C139.389 38.0917 138.773 35.8806 137.191 34.2983L135.777 35.7125ZM137.389 40.55H135.389C135.389 42.4105 134.928 43.4294 134.362 43.9948L135.777 45.409L137.191 46.8232C138.775 45.2386 139.389 43.0181 139.389 40.55H137.389ZM135.777 45.409L134.372 43.9853C133.805 44.5445 132.787 45 130.939 45V47V49C133.391 49 135.598 48.3948 137.181 46.8327L135.777 45.409ZM130.939 47V45H123.887V47V49H130.939V47ZM145.057 37.583V35.583H143.057V37.583H145.057ZM146.068 42.399L144.653 43.8132L144.661 43.8208L144.669 43.8283L146.068 42.399ZM156.646 42.9795L157.369 44.8442L157.369 44.8442L156.646 42.9795ZM158.043 41.539L159.94 42.1715L159.953 42.1335L159.964 42.0951L158.043 41.539ZM158.688 40.292L157.274 38.8778L157.256 38.8959L157.238 38.9145L158.688 40.292ZM161.354 40.335L162.768 38.9208L162.768 38.9208L161.354 40.335ZM161.655 41.711L159.69 41.3368L159.688 41.3492L159.686 41.3616L161.655 41.711ZM143.509 44.936L142.095 46.3502L142.102 46.3575L143.509 44.936ZM143.509 27.22L144.916 28.6416L144.916 28.6415L143.509 27.22ZM149.873 25.199L149.853 27.1989L149.863 27.199H149.873V25.199ZM159.763 27.263L158.349 28.6772L158.356 28.6846L159.763 27.263ZM149.873 28.811L149.842 30.8108L149.858 30.811H149.873V28.811ZM146.068 29.7785L144.653 28.3643L144.653 28.3643L146.068 29.7785ZM145.057 33.971H143.057V35.971H145.057V33.971ZM158.215 33.971V35.971H160.215V33.971H158.215ZM157.205 29.8215L155.775 31.2204L155.79 31.2358L155.806 31.2508L157.205 29.8215ZM145.057 37.583H143.057V38.615H145.057H147.057V37.583H145.057ZM145.057 38.615H143.057C143.057 40.5549 143.379 42.5391 144.653 43.8132L146.068 42.399L147.482 40.9848C147.409 40.9116 147.057 40.3731 147.057 38.615H145.057ZM146.068 42.399L144.669 43.8283C145.945 45.0771 147.931 45.388 149.873 45.388V43.388V41.388C148.088 41.388 147.538 41.0396 147.467 40.9697L146.068 42.399ZM149.873 43.388V45.388H153.399V43.388V41.388H149.873V43.388ZM153.399 43.388V45.388C154.92 45.388 156.309 45.2552 157.369 44.8442L156.646 42.9795L155.923 41.1148C155.578 41.2485 154.802 41.388 153.399 41.388V43.388ZM156.646 42.9795L157.369 44.8442C158.602 44.3661 159.515 43.4493 159.94 42.1715L158.043 41.539L156.146 40.9065C156.118 40.99 156.093 41.0156 156.086 41.0225C156.078 41.0311 156.039 41.0696 155.923 41.1148L156.646 42.9795ZM158.043 41.539L159.964 42.0951C160.014 41.9228 160.063 41.8083 160.099 41.7376C160.135 41.6675 160.153 41.6538 160.138 41.6695L158.688 40.292L157.238 38.9145C156.671 39.512 156.333 40.2553 156.122 40.9829L158.043 41.539ZM158.688 40.292L160.102 41.7062C160.055 41.7537 160.005 41.7911 159.959 41.8189C159.913 41.8462 159.877 41.8604 159.858 41.8669C159.823 41.8784 159.852 41.862 159.978 41.862V39.862V37.862C159.096 37.862 158.068 38.0838 157.274 38.8778L158.688 40.292ZM159.978 39.862V41.862C160.109 41.862 160.147 41.8797 160.123 41.8716C160.11 41.8671 160.083 41.8562 160.048 41.8346C160.012 41.8127 159.975 41.7841 159.94 41.7492L161.354 40.335L162.768 38.9208C161.962 38.1141 160.92 37.862 159.978 37.862V39.862ZM161.354 40.335L159.94 41.7492C159.883 41.692 159.83 41.6226 159.788 41.5446C159.747 41.4673 159.724 41.3968 159.712 41.3429C159.69 41.2413 159.712 41.2238 159.69 41.3368L161.655 41.711L163.62 42.0852C163.808 41.0985 163.715 39.8678 162.768 38.9208L161.354 40.335ZM161.655 41.711L159.686 41.3616C159.457 42.6526 158.895 43.461 158.046 44.0005L159.118 45.6885L160.191 47.3765C162.094 46.1674 163.223 44.3241 163.624 42.0604L161.655 41.711ZM159.118 45.6885L158.046 44.0005C157.112 44.5938 155.632 45 153.399 45V47V49C156.04 49 158.373 48.5319 160.191 47.3765L159.118 45.6885ZM153.399 47V45H149.873V47V49H153.399V47ZM149.873 47V45C147.307 45 145.79 44.3793 144.916 43.5145L143.509 44.936L142.102 46.3575C144.009 48.2447 146.735 49 149.873 49V47ZM143.509 44.936L144.923 43.5218C144.065 42.6634 143.445 41.1655 143.445 38.615H141.445H139.445C139.445 41.7405 140.201 44.4566 142.095 46.3502L143.509 44.936ZM141.445 38.615H143.445V33.627H141.445H139.445V38.615H141.445ZM141.445 33.627H143.445C143.445 30.9857 144.074 29.4748 144.916 28.6416L143.509 27.22L142.102 25.7984C140.192 27.6885 139.445 30.449 139.445 33.627H141.445ZM143.509 27.22L144.916 28.6415C145.783 27.7839 147.29 27.1731 149.853 27.1989L149.873 25.199L149.893 23.1991C146.752 23.1675 144.016 23.9041 142.102 25.7985L143.509 27.22ZM149.873 25.199V27.199H153.399V25.199V23.199H149.873V25.199ZM153.399 25.199V27.199C155.985 27.199 157.494 27.8221 158.349 28.6772L159.763 27.263L161.177 25.8488C159.28 23.9519 156.546 23.199 153.399 23.199V25.199ZM159.763 27.263L158.356 28.6846C159.202 29.521 159.827 31.0212 159.827 33.627H161.827H163.827C163.827 30.4708 163.077 27.7283 161.17 25.8414L159.763 27.263ZM161.827 33.627H159.827V35.777H161.827H163.827V33.627H161.827ZM161.827 35.777H159.827C159.827 35.9173 159.809 35.9586 159.817 35.9347C159.828 35.901 159.868 35.8111 159.961 35.7173C160.055 35.6235 160.145 35.584 160.179 35.5728C160.203 35.5648 160.161 35.583 160.021 35.583V37.583V39.583C160.931 39.583 161.981 39.3541 162.79 38.5457C163.598 37.7374 163.827 36.6873 163.827 35.777H161.827ZM160.021 37.583V35.583H145.057V37.583V39.583H160.021V37.583ZM149.873 28.811L149.904 26.8112C147.955 26.7813 145.943 27.075 144.653 28.3643L146.068 29.7785L147.482 31.1927C147.54 31.1347 148.064 30.7834 149.842 30.8108L149.873 28.811ZM146.068 29.7785L144.653 28.3643C143.374 29.6441 143.057 31.66 143.057 33.627H145.057H147.057C147.057 31.81 147.414 31.2602 147.482 31.1927L146.068 29.7785ZM145.057 33.627H143.057V33.971H145.057H147.057V33.627H145.057ZM145.057 33.971V35.971H158.215V33.971V31.971H145.057V33.971ZM158.215 33.971H160.215V33.627H158.215H156.215V33.971H158.215ZM158.215 33.627H160.215C160.215 31.6768 159.9 29.661 158.604 28.3922L157.205 29.8215L155.806 31.2508C155.804 31.2488 155.919 31.364 156.029 31.7807C156.139 32.1927 156.215 32.7938 156.215 33.627H158.215ZM157.205 29.8215L158.634 28.4226C157.365 27.1261 155.349 26.811 153.399 26.811V28.811V30.811C154.232 30.811 154.833 30.8872 155.245 30.9966C155.662 31.1073 155.777 31.2225 155.775 31.2204L157.205 29.8215ZM153.399 28.811V26.811H149.873V28.811V30.811H153.399V28.811ZM169.73 37.583V35.583H167.73V37.583H169.73ZM170.741 42.399L169.326 43.8132L169.334 43.8208L169.342 43.8283L170.741 42.399ZM181.319 42.9795L182.042 44.8442L182.042 44.8442L181.319 42.9795ZM182.716 41.539L184.613 42.1715L184.626 42.1335L184.637 42.0951L182.716 41.539ZM183.361 40.292L181.947 38.8778L181.929 38.8959L181.911 38.9145L183.361 40.292ZM186.027 40.335L187.441 38.9208L187.441 38.9208L186.027 40.335ZM186.328 41.711L184.363 41.3368L184.361 41.3492L184.359 41.3616L186.328 41.711ZM168.182 44.936L166.768 46.3502L166.775 46.3575L168.182 44.936ZM168.182 27.22L169.589 28.6416L169.589 28.6415L168.182 27.22ZM174.546 25.199L174.526 27.1989L174.536 27.199H174.546V25.199ZM184.436 27.263L183.022 28.6772L183.029 28.6846L184.436 27.263ZM174.546 28.811L174.515 30.8108L174.531 30.811H174.546V28.811ZM170.741 29.7785L169.326 28.3643L169.326 28.3643L170.741 29.7785ZM169.73 33.971H167.73V35.971H169.73V33.971ZM182.888 33.971V35.971H184.888V33.971H182.888ZM181.878 29.8215L180.448 31.2204L180.463 31.2358L180.479 31.2508L181.878 29.8215ZM169.73 37.583H167.73V38.615H169.73H171.73V37.583H169.73ZM169.73 38.615H167.73C167.73 40.5549 168.052 42.5391 169.326 43.8132L170.741 42.399L172.155 40.9848C172.082 40.9116 171.73 40.3731 171.73 38.615H169.73ZM170.741 42.399L169.342 43.8283C170.618 45.0771 172.604 45.388 174.546 45.388V43.388V41.388C172.761 41.388 172.211 41.0396 172.139 40.9697L170.741 42.399ZM174.546 43.388V45.388H178.072V43.388V41.388H174.546V43.388ZM178.072 43.388V45.388C179.593 45.388 180.982 45.2552 182.042 44.8442L181.319 42.9795L180.595 41.1148C180.251 41.2485 179.475 41.388 178.072 41.388V43.388ZM181.319 42.9795L182.042 44.8442C183.275 44.3661 184.187 43.4493 184.613 42.1715L182.716 41.539L180.819 40.9065C180.791 40.99 180.766 41.0156 180.759 41.0225C180.751 41.0311 180.712 41.0696 180.595 41.1148L181.319 42.9795ZM182.716 41.539L184.637 42.0951C184.687 41.9228 184.735 41.8083 184.772 41.7376C184.808 41.6675 184.826 41.6538 184.811 41.6695L183.361 40.292L181.911 38.9145C181.343 39.512 181.006 40.2553 180.795 40.9829L182.716 41.539ZM183.361 40.292L184.775 41.7062C184.728 41.7537 184.678 41.7911 184.632 41.8189C184.586 41.8462 184.55 41.8604 184.531 41.8669C184.496 41.8784 184.525 41.862 184.651 41.862V39.862V37.862C183.769 37.862 182.741 38.0838 181.947 38.8778L183.361 40.292ZM184.651 39.862V41.862C184.782 41.862 184.82 41.8797 184.796 41.8716C184.783 41.8671 184.756 41.8562 184.721 41.8346C184.685 41.8127 184.648 41.7841 184.613 41.7492L186.027 40.335L187.441 38.9208C186.635 38.1141 185.593 37.862 184.651 37.862V39.862ZM186.027 40.335L184.613 41.7492C184.556 41.692 184.503 41.6226 184.461 41.5446C184.42 41.4673 184.397 41.3968 184.385 41.3429C184.363 41.2413 184.385 41.2238 184.363 41.3368L186.328 41.711L188.293 42.0852C188.481 41.0985 188.388 39.8678 187.441 38.9208L186.027 40.335ZM186.328 41.711L184.359 41.3616C184.13 42.6526 183.567 43.461 182.718 44.0005L183.791 45.6885L184.864 47.3765C186.767 46.1674 187.896 44.3241 188.297 42.0604L186.328 41.711ZM183.791 45.6885L182.718 44.0005C181.785 44.5938 180.305 45 178.072 45V47V49C180.713 49 183.045 48.5319 184.864 47.3765L183.791 45.6885ZM178.072 47V45H174.546V47V49H178.072V47ZM174.546 47V45C171.98 45 170.463 44.3793 169.589 43.5145L168.182 44.936L166.775 46.3575C168.682 48.2447 171.408 49 174.546 49V47ZM168.182 44.936L169.596 43.5218C168.738 42.6634 168.118 41.1655 168.118 38.615H166.118H164.118C164.118 41.7405 164.874 44.4566 166.768 46.3502L168.182 44.936ZM166.118 38.615H168.118V33.627H166.118H164.118V38.615H166.118ZM166.118 33.627H168.118C168.118 30.9857 168.747 29.4748 169.589 28.6416L168.182 27.22L166.775 25.7984C164.865 27.6885 164.118 30.449 164.118 33.627H166.118ZM168.182 27.22L169.589 28.6415C170.455 27.7839 171.963 27.1731 174.526 27.1989L174.546 25.199L174.566 23.1991C171.425 23.1675 168.689 23.9041 166.775 25.7985L168.182 27.22ZM174.546 25.199V27.199H178.072V25.199V23.199H174.546V25.199ZM178.072 25.199V27.199C180.658 27.199 182.167 27.8221 183.022 28.6772L184.436 27.263L185.85 25.8488C183.953 23.9519 181.219 23.199 178.072 23.199V25.199ZM184.436 27.263L183.029 28.6846C183.874 29.521 184.5 31.0212 184.5 33.627H186.5H188.5C188.5 30.4708 187.75 27.7283 185.843 25.8414L184.436 27.263ZM186.5 33.627H184.5V35.777H186.5H188.5V33.627H186.5ZM186.5 35.777H184.5C184.5 35.9173 184.482 35.9586 184.49 35.9347C184.501 35.901 184.541 35.8111 184.634 35.7173C184.728 35.6235 184.818 35.584 184.852 35.5728C184.876 35.5648 184.834 35.583 184.694 35.583V37.583V39.583C185.604 39.583 186.654 39.3541 187.463 38.5457C188.271 37.7374 188.5 36.6873 188.5 35.777H186.5ZM184.694 37.583V35.583H169.73V37.583V39.583H184.694V37.583ZM174.546 28.811L174.577 26.8112C172.628 26.7813 170.616 27.075 169.326 28.3643L170.741 29.7785L172.155 31.1927C172.213 31.1347 172.737 30.7834 174.515 30.8108L174.546 28.811ZM170.741 29.7785L169.326 28.3643C168.046 29.6441 167.73 31.66 167.73 33.627H169.73H171.73C171.73 31.81 172.087 31.2602 172.155 31.1927L170.741 29.7785ZM169.73 33.627H167.73V33.971H169.73H171.73V33.627H169.73ZM169.73 33.971V35.971H182.888V33.971V31.971H169.73V33.971ZM182.888 33.971H184.888V33.627H182.888H180.888V33.971H182.888ZM182.888 33.627H184.888C184.888 31.6768 184.573 29.661 183.276 28.3922L181.878 29.8215L180.479 31.2508C180.477 31.2488 180.592 31.364 180.702 31.7807C180.812 32.1927 180.888 32.7938 180.888 33.627H182.888ZM181.878 29.8215L183.307 28.4226C182.038 27.1261 180.022 26.811 178.072 26.811V28.811V30.811C178.905 30.811 179.506 30.8872 179.918 30.9966C180.335 31.1073 180.45 31.2225 180.448 31.2204L181.878 29.8215ZM178.072 28.811V26.811H174.546V28.811V30.811H178.072V28.811ZM195.435 34.6805H193.435V39.0359L196.738 36.1974L195.435 34.6805ZM205.669 25.887L206.972 27.4039L206.973 27.4038L205.669 25.887ZM208.206 26.059L206.687 27.3606L206.689 27.3625L208.206 26.059ZM208.034 28.596L206.732 27.0775L206.727 27.0819L208.034 28.596ZM200.186 35.3685L198.88 33.8544L197.352 35.1731L198.684 36.689L200.186 35.3685ZM207.69 43.904L209.205 42.5986L209.199 42.591L209.192 42.5835L207.69 43.904ZM207.561 46.441L206.261 44.9208L206.257 44.9242L207.561 46.441ZM204.981 46.269L203.484 47.5956L203.486 47.5977L204.981 46.269ZM197.434 37.755L198.931 36.4284L197.624 34.9537L196.13 36.2388L197.434 37.755ZM195.435 39.475L194.131 37.9588L193.435 38.5573V39.475H195.435ZM193.629 47V45C193.489 45 193.447 44.9818 193.471 44.9898C193.505 45.001 193.595 45.0405 193.689 45.1343C193.783 45.2281 193.822 45.318 193.833 45.3517C193.841 45.3756 193.823 45.3343 193.823 45.194H191.823H189.823C189.823 46.1043 190.052 47.1544 190.86 47.9627C191.669 48.7711 192.719 49 193.629 49V47ZM191.823 45.194H193.823V18.534H191.823H189.823V45.194H191.823ZM191.823 18.534H193.823C193.823 18.3937 193.841 18.3524 193.833 18.3763C193.822 18.41 193.783 18.4999 193.689 18.5937C193.595 18.6875 193.505 18.727 193.471 18.7382C193.447 18.7462 193.489 18.728 193.629 18.728V16.728V14.728C192.719 14.728 191.669 14.9569 190.86 15.7653C190.052 16.5736 189.823 17.6237 189.823 18.534H191.823ZM193.629 16.728V18.728C193.769 18.728 193.811 18.7462 193.787 18.7382C193.753 18.727 193.663 18.6875 193.569 18.5937C193.475 18.4999 193.436 18.41 193.425 18.3763C193.417 18.3524 193.435 18.3937 193.435 18.534H195.435H197.435C197.435 17.6237 197.206 16.5736 196.398 15.7653C195.589 14.9569 194.539 14.728 193.629 14.728V16.728ZM195.435 18.534H193.435V34.6805H195.435H197.435V18.534H195.435ZM195.435 34.6805L196.738 36.1974L206.972 27.4039L205.669 25.887L204.366 24.3701L194.132 33.1636L195.435 34.6805ZM205.669 25.887L206.973 27.4038C207.082 27.3096 207.129 27.2938 207.11 27.3018C207.081 27.3136 206.989 27.3432 206.856 27.3342C206.722 27.3251 206.629 27.2824 206.592 27.2606C206.565 27.2444 206.6 27.2591 206.687 27.3606L208.206 26.059L209.724 24.7574C209.131 24.0655 208.27 23.4209 207.127 23.3433C205.991 23.2664 205.051 23.7807 204.365 24.3702L205.669 25.887ZM208.206 26.059L206.689 27.3625C206.783 27.4722 206.799 27.519 206.791 27.4996C206.779 27.4711 206.75 27.3792 206.759 27.246C206.768 27.1117 206.811 27.0187 206.832 26.982C206.849 26.9546 206.834 26.9905 206.732 27.0775L208.034 28.596L209.336 30.1145C210.028 29.5214 210.672 28.6605 210.75 27.5165C210.827 26.3813 210.312 25.4414 209.723 24.7555L208.206 26.059ZM208.034 28.596L206.727 27.0819L198.88 33.8544L200.186 35.3685L201.493 36.8826L209.341 30.1101L208.034 28.596ZM200.186 35.3685L198.684 36.689L206.188 45.2245L207.69 43.904L209.192 42.5835L201.689 34.048L200.186 35.3685ZM207.69 43.904L206.175 45.2094C206.276 45.3271 206.299 45.3825 206.294 45.3727C206.287 45.3546 206.256 45.2684 206.262 45.1354C206.269 44.9994 206.311 44.8989 206.339 44.8512C206.361 44.8135 206.355 44.841 206.261 44.9208L207.561 46.441L208.861 47.9612C209.559 47.3643 210.198 46.4932 210.257 45.3386C210.315 44.2103 209.791 43.2789 209.205 42.5986L207.69 43.904ZM207.561 46.441L206.257 44.9242C206.15 45.0164 206.104 45.0318 206.123 45.024C206.134 45.0194 206.162 45.0091 206.206 45.0015C206.25 44.9936 206.303 44.9898 206.361 44.9937C206.419 44.9975 206.471 45.0083 206.514 45.022C206.556 45.0355 206.583 45.0496 206.594 45.0558C206.612 45.0664 206.569 45.0455 206.476 44.9403L204.981 46.269L203.486 47.5977C204.094 48.2821 204.961 48.9092 206.095 48.9848C207.228 49.0604 208.17 48.5543 208.865 47.9578L207.561 46.441ZM204.981 46.269L206.478 44.9424L198.931 36.4284L197.434 37.755L195.938 39.0816L203.484 47.5956L204.981 46.269ZM197.434 37.755L196.13 36.2388L194.131 37.9588L195.435 39.475L196.739 40.9912L198.739 39.2712L197.434 37.755ZM195.435 39.475H193.435V45.194H195.435H197.435V39.475H195.435ZM195.435 45.194H193.435C193.435 45.3343 193.417 45.3756 193.425 45.3517C193.436 45.318 193.475 45.2281 193.569 45.1343C193.663 45.0405 193.753 45.001 193.787 44.9898C193.811 44.9818 193.769 45 193.629 45V47V49C194.539 49 195.589 48.7711 196.398 47.9627C197.206 47.1544 197.435 46.1043 197.435 45.194H195.435Z" fill="white" mask="url(#path-5-outside-1_72_10)"/>
</svg>
