<svg width="48" height="48" viewBox="0 0 48 48" fill="none" xmlns="http://www.w3.org/2000/svg">
<path d="M48 24C48 37.2548 37.2548 48 24 48C10.7452 48 0 37.2548 0 24C0 10.7452 10.7452 0 24 0C37.2548 0 48 10.7452 48 24Z" fill="white"/>
<path d="M46.4262 24C46.4262 36.3857 36.3856 46.4263 24 46.4263C11.6143 46.4263 1.57373 36.3857 1.57373 24C1.57373 11.6144 11.6143 1.57379 24 1.57379C36.3856 1.57379 46.4262 11.6144 46.4262 24Z" fill="#5C8FCE"/>
<rect x="21.246" y="6.60986" width="5.66557" height="34.9377" rx="2.83279" fill="#D9D9D9"/>
<rect x="6.60986" y="26.9115" width="5.66557" height="34.9377" rx="2.83279" transform="rotate(-90 6.60986 26.9115)" fill="#D9D9D9"/>
</svg>
